<svg width="1024" height="1024" xmlns="http://www.w3.org/2000/svg" version="1.1" class="icon">
    <g>
        <path id="svg_1" fill="#" d="m806.4,1011.2l-588.8,0c-35.84,0 -64,-28.16 -64,-64l0,-202.24c0,-66.56 30.72,-128 81.92,-168.96l10.24,-7.68l7.68,10.24c64,76.8 158.72,122.88 258.56,122.88s194.56,-43.52 258.56,-122.88l7.68,-10.24l10.24,7.68c51.2,40.96 81.92,102.4 81.92,168.96l0,202.24c0,35.84 -28.16,64 -64,64zm-563.2,-407.04c-40.96,35.84 -64,87.04 -64,140.8l0,202.24c0,20.48 17.92,38.4 38.4,38.4l588.8,0c20.48,0 38.4,-17.92 38.4,-38.4l0,-202.24c0,-53.76 -23.04,-104.96 -64,-143.36c-69.12,76.8 -166.4,122.88 -268.8,122.88s-202.24,-43.52 -268.8,-120.32z"/>
        <path id="svg_2" fill="#" d="m512,724.48c-197.12,0 -358.4,-158.72 -358.4,-355.84s161.28,-355.84 358.4,-355.84s358.4,158.72 358.4,355.84s-161.28,355.84 -358.4,355.84zm0,-686.08c-184.32,0 -332.8,148.48 -332.8,330.24s148.48,330.24 332.8,330.24s332.8,-148.48 332.8,-330.24s-148.48,-330.24 -332.8,-330.24z"/>
        <path id="svg_3" fill="#" d="m543.96294,655.36l-64,0c-76.8,0 -140.8,-64 -140.8,-140.8l0,-348.16c0,-76.8 64,-140.8 140.8,-140.8l64,0c76.8,0 140.8,64 140.8,140.8l0,348.16c2.56,76.8 -61.44,140.8 -140.8,140.8zm-61.44,-604.16c-64,0 -115.2,51.2 -115.2,115.2l0,348.16c0,64 51.2,115.2 115.2,115.2l64,0c64,0 115.2,-51.2 115.2,-115.2l0,-348.16c0,-64 -51.2,-115.2 -115.2,-115.2l-64,0z"/>
        <path id="svg_4" fill="#" d="m512.00002,496.64c-71.68,0 -128,-56.32 -128,-128s56.32,-128 128,-128s128,56.32 128,128s-56.32,128 -128,128zm0,-230.4c-56.32,0 -102.4,46.08 -102.4,102.4s46.08,102.4 102.4,102.4s102.4,-46.08 102.4,-102.4s-46.08,-102.4 -102.4,-102.4z"/>
        <path id="svg_5" fill="#" d="m512.00003,437.76c-38.4,0 -71.68,-30.72 -71.68,-69.12s30.72,-69.12 71.68,-69.12s71.68,30.72 71.68,69.12s-33.28,69.12 -71.68,69.12zm0,-112.64c-25.6,0 -46.08,20.48 -46.08,43.52s20.48,43.52 46.08,43.52s46.08,-20.48 46.08,-43.52s-20.48,-43.52 -46.08,-43.52z"/>
        <ellipse opacity="0.9" ry="20" rx="20" id="svg_6" cy="572.95313" cx="512.00003" stroke-opacity="null" stroke-width="null" stroke="null" fill="#0000ff"/>
    </g>
</svg>